# File created by Blade
# Date/Time:  Thu Sep 25 17:14:50 2014
# Frame Rate: 120.000 fps
#------------------------------------------------------
:FULLY-SPECIFIED
:DEGREES
213
root 26.650401 31.940393 -0.479056 178.646705 -81.141102 -165.569628
Spine -10.303069 12.175970 1.325173
Head -0.819397 -4.067648 6.686284
LeftShoulder -12.011248 24.866559 12.218945
LeftArm 28.582967 38.836196 -68.092395
LeftForeArm -0.344820 -0.000000 25.257029
LeftHand -25.447974 -0.000000 -4.496435
LeftHandThumb1 -26.253704 0.000000 33.147579
RightShoulder -18.305896 8.322505 -25.758208
RightArm -15.358049 -25.621377 97.566365
RightForeArm -8.638490 -0.000000 25.333828
RightHand -2.155073 -0.000000 14.498341
RightHandThumb1 -24.326973 -0.000000 -32.862282
LeftUpLeg -31.752101 -0.284281 -2.857578
LeftLeg 32.309595 -0.000000 -0.000000
LeftFoot -23.730000 26.056801 -18.452703
LeftToeBase 4.583066 -0.000000 -0.000000
RightUpLeg -7.263649 -4.722524 -7.717471
RightLeg 47.329127 -0.000000 -0.000000
RightFoot -9.801835 -0.517625 5.390149
RightToeBase -6.576331 -0.000000 0.000000
214
root 26.968764 31.913338 -0.537304 179.028204 -80.796195 -165.728099
Spine -10.256879 12.434311 1.364876
Head -1.090223 -3.930068 6.521057
LeftShoulder -12.037854 24.832896 12.123527
LeftArm 28.294621 38.460635 -68.456722
LeftForeArm -0.449464 -0.000000 25.010999
LeftHand -25.389827 -0.000000 -4.576601
LeftHandThumb1 -26.253704 0.000000 33.147579
RightShoulder -18.226515 8.426954 -25.824139
RightArm -15.208918 -25.729107 97.424567
RightForeArm -8.585440 -0.000000 25.315436
RightHand -2.524944 -0.000000 14.353302
RightHandThumb1 -24.326973 -0.000000 -32.862282
LeftUpLeg -32.559593 -0.192514 -2.628322
LeftLeg 32.307306 -0.000000 -0.000000
LeftFoot -23.301077 26.553983 -18.306299
LeftToeBase 4.668298 -0.000000 -0.000000
RightUpLeg -6.098995 -4.659651 -7.708804
RightLeg 44.366648 -0.000000 -0.000000
RightFoot -9.916638 0.252095 5.270242
RightToeBase -6.674953 -0.000000 0.000000
215
root 27.299128 31.890409 -0.592781 179.583551 -80.462351 -166.027196
Spine -10.220266 12.705104 1.381645
Head -1.348545 -3.775793 6.334442
LeftShoulder -12.041879 24.841565 11.985326
LeftArm 28.165684 38.104410 -68.659869
LeftForeArm -0.627547 -0.000000 24.728865
LeftHand -25.366950 -0.000000 -4.700177
LeftHandThumb1 -26.253704 0.000000 33.147579
RightShoulder -18.152557 8.510350 -25.901268
RightArm -14.984859 -25.717062 97.248759
RightForeArm -8.556351 -0.000000 25.209810
RightHand -2.623327 -0.000000 14.296466
RightHandThumb1 -24.326973 -0.000000 -32.862282
LeftUpLeg -33.389091 -0.167297 -2.381364
LeftLeg 32.252370 -0.000000 -0.000000
LeftFoot -22.826230 26.982992 -18.299290
LeftToeBase 4.751908 -0.000000 -0.000000
RightUpLeg -5.027203 -4.420962 -7.663947
RightLeg 41.293249 -0.000000 -0.000000
RightFoot -10.097428 0.708862 4.518909
RightToeBase -6.099778 -0.000000 0.000000
216
root 27.638550 31.868307 -0.651176 180.145801 -80.104242 -166.322451
Spine -10.178718 12.997651 1.394991
Head -1.576831 -3.649887 6.127275
LeftShoulder -12.039416 24.808027 11.872231
LeftArm 28.054842 37.797414 -68.825071
LeftForeArm -0.928097 -0.000000 24.388990
LeftHand -25.133459 0.000000 -4.683548
LeftHandThumb1 -26.253704 0.000000 33.147579
RightShoulder -18.041605 8.627958 -25.985939
RightArm -14.762295 -25.597478 97.073886
RightForeArm -8.625051 -0.000000 25.091658
RightHand -2.732348 -0.000000 14.100303
RightHandThumb1 -24.326973 -0.000000 -32.862282
LeftUpLeg -34.236388 -0.159860 -2.101935
LeftLeg 32.187141 -0.000000 -0.000000
LeftFoot -22.339699 27.438897 -18.373309
LeftToeBase 4.851076 -0.000000 -0.000000
RightUpLeg -4.044917 -4.061624 -7.582988
RightLeg 38.184342 -0.000000 -0.000000
RightFoot -10.074843 1.187382 4.339204
RightToeBase -6.012618 -0.000000 0.000000
217
root 27.987596 31.847225 -0.712685 180.714734 -79.730353 -166.618255
Spine -10.124895 13.279722 1.406275
Head -1.795127 -3.477208 5.912036
LeftShoulder -12.023753 24.743851 11.759634
LeftArm 27.913150 37.479861 -68.979219
LeftForeArm -1.154456 -0.000000 24.117537
LeftHand -25.192897 0.000000 -4.838151
LeftHandThumb1 -26.253704 0.000000 33.147579
RightShoulder -17.897399 8.728415 -26.055929
RightArm -14.481330 -25.362305 96.862577
RightForeArm -8.683462 0.000000 24.978535
RightHand -2.320220 0.000000 13.330957
RightHandThumb1 -24.326973 -0.000000 -32.862282
LeftUpLeg -35.085607 -0.193178 -1.783822
LeftLeg 32.089674 -0.000000 -0.000000
LeftFoot -21.833965 27.946933 -18.519158
LeftToeBase 4.928668 -0.000000 -0.000000
RightUpLeg -3.116672 -3.581761 -7.505447
RightLeg 35.060508 -0.000000 -0.000000
RightFoot -10.016032 1.854435 4.400219
RightToeBase -9.069146 -0.000000 0.000000
218
root 28.346041 31.828188 -0.773279 181.447857 -79.361419 -167.045142
Spine -10.101344 13.591498 1.371637
Head -1.976181 -3.327606 5.672417
LeftShoulder -11.993455 24.755115 11.644271
LeftArm 27.928422 37.101718 -69.032935
LeftForeArm -1.331807 -0.000000 23.744671
LeftHand -25.082656 0.000000 -4.719804
LeftHandThumb1 -26.253704 0.000000 33.147579
RightShoulder -17.766372 8.887311 -26.150377
RightArm -14.264134 -25.115467 96.674360
RightForeArm -8.563700 -0.000000 24.830334
RightHand -2.302688 -0.000000 13.005257
RightHandThumb1 -24.326973 -0.000000 -32.862282
LeftUpLeg -35.949599 -0.242639 -1.473707
LeftLeg 31.910373 -0.000000 -0.000000
LeftFoot -21.249714 28.459917 -18.652330
LeftToeBase 5.104436 -0.000000 -0.000000
RightUpLeg -2.376071 -3.012933 -7.381959
RightLeg 32.149669 -0.000000 -0.000000
RightFoot -10.221788 2.083165 3.287286
RightToeBase -14.362689 -0.000000 0.000000
219
root 28.714881 31.812691 -0.840085 181.805789 -78.978748 -167.078597
Spine -10.065036 13.904894 1.439664
Head -2.133532 -3.166136 5.381470
LeftShoulder -11.959577 24.645287 11.515610
LeftArm 27.796007 36.782063 -69.128185
LeftForeArm -1.417156 -0.000000 23.490864
LeftHand -24.931026 -0.000000 -4.952287
LeftHandThumb1 -26.253704 0.000000 33.147579
RightShoulder -17.574001 9.063128 -26.238922
RightArm -14.060490 -24.797833 96.469400
RightForeArm -8.638328 -0.000000 24.678515
RightHand -2.844161 -0.000000 13.228967
RightHandThumb1 -24.326973 -0.000000 -32.862282
LeftUpLeg -36.811477 -0.182668 -1.096852
LeftLeg 31.674907 -0.000000 -0.000000
LeftFoot -20.577724 28.883441 -18.753274
LeftToeBase 5.140480 -0.000000 -0.000000
RightUpLeg -1.807512 -2.434135 -7.114564
RightLeg 29.469701 -0.000000 -0.000000
RightFoot -10.681778 1.898237 1.554384
RightToeBase -17.929999 -0.000000 0.000000
220
root 29.094967 31.800628 -0.907478 182.308464 -78.553855 -167.249655
Spine -9.992757 14.280357 1.471838
Head -2.309952 -3.018868 5.033546
LeftShoulder -11.976821 24.600404 11.322284
LeftArm 27.862291 36.367878 -69.072296
LeftForeArm -1.419466 -0.000000 23.187101
LeftHand -24.929426 0.000000 -5.077315
LeftHandThumb1 -26.253704 0.000000 33.147579
RightShoulder -17.436518 9.237581 -26.357845
RightArm -13.812525 -24.374898 96.255534
RightForeArm -8.599246 -0.000000 24.532878
RightHand -2.745245 -0.000000 12.822890
RightHandThumb1 -24.326973 -0.000000 -32.862282
LeftUpLeg -37.632514 -0.067042 -0.731064
LeftLeg 31.311372 -0.000000 -0.000000
LeftFoot -19.821906 29.287177 -18.835002
LeftToeBase 5.273395 -0.000000 -0.000000
RightUpLeg -1.439433 -1.819371 -6.871781
RightLeg 27.108087 -0.000000 -0.000000
RightFoot -11.345467 1.607465 0.341949
RightToeBase -19.465972 -0.000000 0.000000
221
root 29.495359 31.792031 -0.977492 182.677777 -78.102017 -167.204504
Spine -9.963369 14.670281 1.561048
Head -2.504921 -2.820755 4.608845
LeftShoulder -11.998826 24.565925 11.114719
LeftArm 27.957576 35.942629 -68.992417
LeftForeArm -1.406685 -0.000000 22.926782
LeftHand -24.844045 -0.000000 -5.365443
LeftHandThumb1 -26.253704 0.000000 33.147579
RightShoulder -17.264376 9.509983 -26.498114
RightArm -13.597718 -23.978567 96.034120
RightForeArm -8.480174 0.000000 24.352699
RightHand -2.561441 -0.000000 11.563134
RightHandThumb1 -24.326973 -0.000000 -32.862282
LeftUpLeg -38.525402 0.125994 -0.323680
LeftLeg 30.864144 -0.000000 -0.000000
LeftFoot -18.942384 29.666029 -18.836152
LeftToeBase 5.386191 -0.000000 -0.000000
RightUpLeg -1.402122 -1.045261 -6.514215
RightLeg 25.208610 -0.000000 -0.000000
RightFoot -12.658790 1.088688 -0.085320
RightToeBase -18.467436 -0.000000 0.000000
222
root 29.893893 31.786528 -1.054662 182.899510 -77.775694 -167.109722
Spine -9.783185 14.942549 1.675582
Head -2.786364 -2.609647 4.210087
LeftShoulder -11.980033 24.397265 10.890128
LeftArm 27.858806 35.409740 -68.995804
LeftForeArm -1.145316 -0.000000 22.763186
LeftHand -24.868560 -0.000000 -5.447077
LeftHandThumb1 -26.253704 0.000000 33.147579
RightShoulder -17.123722 9.667057 -26.565587
RightArm -13.243687 -23.730031 95.744319
RightForeArm -8.094182 0.000000 24.209704
RightHand -2.507926 -0.000000 10.930984
RightHandThumb1 -24.326973 -0.000000 -32.862282
LeftUpLeg -39.254274 0.295766 0.081954
LeftLeg 30.283969 -0.000000 -0.000000
LeftFoot -17.962979 29.987537 -18.823002
LeftToeBase 5.348027 -0.000000 -0.000000
RightUpLeg -1.478227 -0.739672 -6.176231
RightLeg 23.792132 -0.000000 -0.000000
RightFoot -13.960466 0.553968 0.263283
RightToeBase -18.727203 -0.000000 0.000000
223
root 30.296319 31.783222 -1.131959 183.136262 -77.446376 -167.064435
Spine -9.529167 15.194922 1.818170
Head -3.069228 -2.332987 3.771600
LeftShoulder -12.014878 24.419525 10.597449
LeftArm 27.984357 34.735207 -68.883137
LeftForeArm -0.884997 -0.000000 22.599985
LeftHand -24.635139 -0.000000 -5.516572
LeftHandThumb1 -26.253704 0.000000 33.147579
RightShoulder -16.935712 9.889940 -26.676883
RightArm -12.955982 -23.355867 95.488914
RightForeArm -7.859380 -0.000000 24.123500
RightHand -2.585118 -0.000000 10.299123
RightHandThumb1 -24.326973 -0.000000 -32.862282
LeftUpLeg -39.894334 0.510783 0.484108
LeftLeg 29.631918 -0.000000 -0.000000
LeftFoot -16.991588 30.284630 -18.871546
LeftToeBase 5.569726 -0.000000 -0.000000
RightUpLeg -1.681117 -0.452039 -5.816643
RightLeg 22.661024 -0.000000 -0.000000
RightFoot -15.128222 -0.298421 0.122002
RightToeBase -17.922066 -0.000000 0.000000
224
root 30.703973 31.783396 -1.203940 183.545759 -77.141118 -167.201716
Spine -9.233035 15.409232 1.927579
Head -3.398871 -2.087280 3.293170
LeftShoulder -12.091185 24.460529 10.328836
LeftArm 28.224709 34.142147 -68.709829
LeftForeArm -0.773133 -0.000000 22.424253
LeftHand -24.721556 -0.000000 -5.565465
LeftHandThumb1 -26.253704 0.000000 33.147579
RightShoulder -16.737014 10.062447 -26.772920
RightArm -12.565533 -23.080836 95.171293
RightForeArm -7.756429 -0.000000 24.025885
RightHand -2.546618 -0.000000 9.891865
RightHandThumb1 -24.326973 -0.000000 -32.862282
LeftUpLeg -40.439418 0.718340 0.828707
LeftLeg 28.764702 -0.000000 -0.000000
LeftFoot -15.844800 30.629240 -18.766115
LeftToeBase 5.674279 -0.000000 -0.000000
RightUpLeg -2.011927 -0.152924 -5.507063
RightLeg 21.746537 -0.000000 -0.000000
RightFoot -16.243265 -0.947550 0.265658
RightToeBase -16.497819 -0.000000 0.000000
